<?xml version="1.0" standalone="no"?><!DOCTYPE svg PUBLIC "-//W3C//DTD SVG 1.1//EN" "http://www.w3.org/Graphics/SVG/1.1/DTD/svg11.dtd"><svg t="1717313785130" class="icon" viewBox="0 0 1024 1024" version="1.1" xmlns="http://www.w3.org/2000/svg" p-id="4256" xmlns:xlink="http://www.w3.org/1999/xlink" width="200" height="200"><path d="M765.335465 843.574016c-123.485464 91.29692-257.426031 121.59202-403.385849 87.510033-114.402422-26.700301-206.11096-89.924859-274.412143-185.584932-137.206071-192.582441-110.341122-456.319951 62.483645-618.305439 171.864325-161.079928 435.49207-170.135528 620.171442-21.623677 191.100616 153.6708 238.738564 446.166702 76.039605 656.832904 3.183181 3.402711 6.393803 7.107274 9.823954 10.564867q74.091278 74.255926 148.456969 148.402087c17.781907 17.727024 24.477563 38.4177 16.766582 62.565968a58.010727 58.010727 0 0 1-90.556007 27.990039 135.916334 135.916334 0 0 1-13.1169-12.046693q-71.813658-71.758775-143.490109-143.654757a82.872467 82.872467 0 0 1-8.781189-12.6504zM472.674915 104.252823c-16.464729 1.399502-32.929457 2.305062-49.119773 4.280829-202.296631 24.422681-347.982038 220.517598-313.872609 422.265405 47.034241 278.253912 372.871219 403.989556 591.687462 227.268136 19.922322-16.080552 38.4177-36.38705 55.513576-55.650783 49.94301-56.144724 75.518222-124.665436 81.555289-199.552509 17.315406-215.13912-149.993677-396.799958-365.763945-398.611078z" p-id="4257" fill="#707070"></path></svg>