<?xml version="1.0" standalone="no"?><!DOCTYPE svg PUBLIC "-//W3C//DTD SVG 1.1//EN" "http://www.w3.org/Graphics/SVG/1.1/DTD/svg11.dtd"><svg t="1717508855864" class="icon" viewBox="0 0 1024 1024" version="1.1" xmlns="http://www.w3.org/2000/svg" p-id="6274" xmlns:xlink="http://www.w3.org/1999/xlink" width="200" height="200"><path d="M819.733333 790.570667c-18.688 18.666667-49.066667 18.666667-67.84 0L277.333333 315.904a48.042667 48.042667 0 0 1 0-67.84 48.042667 48.042667 0 0 1 67.818667 0l474.666667 474.666667a47.957333 47.957333 0 0 1-0.085334 67.84z" fill="#7F7F7F" p-id="6275"></path><path d="M441.813333 410.026667c-36.8 22.378667-61.461333 62.165333-61.461333 107.925333 0 70.314667 57.92 127.296 129.386667 127.296a129.173333 129.173333 0 0 0 109.674666-60.458667L441.813333 410.026667z m54.272-81.664c4.544-0.298667 9.002667-1.386667 13.653334-1.386667 107.157333 0 194.090667 85.546667 194.090666 190.976 0 4.565333-1.024 8.96-1.408 13.418667l128.981334 126.933333c46.08-39.509333 82.389333-87.04 104.832-140.373333-62.293333-148.181333-229.482667-254.613333-426.602667-254.613334-25.386667 0-50.133333 1.877333-74.389333 5.269334l60.842666 59.776z" fill="#7F7F7F" p-id="6276"></path><path d="M663.125333 631.04c-34.922667 48.064-90.730667 79.658667-154.197333 79.658667-105.792 0-191.616-86.826667-191.616-193.813334 0-64.213333 31.232-120.64 78.741333-155.968l-67.562666-68.352c-111.573333 43.008-199.594667 123.669333-240.725334 224.32 61.482667 150.4 226.56 258.432 421.162667 258.432 87.424 0 168.256-22.72 237.12-60.373333l-82.922667-83.882667z" fill="#7F7F7F" p-id="6277"></path></svg>