<?xml version="1.0" standalone="no"?><!DOCTYPE svg PUBLIC "-//W3C//DTD SVG 1.1//EN" "http://www.w3.org/Graphics/SVG/1.1/DTD/svg11.dtd"><svg t="1717508841412" class="icon" viewBox="0 0 1024 1024" version="1.1" xmlns="http://www.w3.org/2000/svg" p-id="5283" xmlns:xlink="http://www.w3.org/1999/xlink" width="200" height="200"><path d="M511.6 510.1m-145.2 0a145.2 145.2 0 1 0 290.4 0 145.2 145.2 0 1 0-290.4 0Z" fill="" p-id="5284"></path><path d="M953.6 483.9c-81.4-161.6-248.7-272.5-442-272.5-192.3 0-358.8 109.7-440.7 269.9-9.3 18.1-9.3 39.4 0 57.6 81.9 160.2 248.4 269.9 440.7 269.9 193.3 0 360.6-110.9 442-272.5 8.4-16.6 8.4-35.8 0-52.4z m-442 247.5c-122.2 0-221.3-99.1-221.3-221.3 0-122.2 99.1-221.3 221.3-221.3s221.3 99.1 221.3 221.3c0 122.2-99.1 221.3-221.3 221.3z" fill="" p-id="5285"></path></svg>