<?xml version="1.0" standalone="no"?><!DOCTYPE svg PUBLIC "-//W3C//DTD SVG 1.1//EN" "http://www.w3.org/Graphics/SVG/1.1/DTD/svg11.dtd"><svg t="1717311938356" class="icon" viewBox="0 0 1101 1024" version="1.1" xmlns="http://www.w3.org/2000/svg" p-id="15846" xmlns:xlink="http://www.w3.org/1999/xlink" width="215.0390625" height="200"><path d="M570.428908 671.519185l74.13287-22.379734 137.838818-41.580529 24.922886-7.502297 116.984974-35.22265-116.984974-36.875699-162.761704-51.371662-72.734136-23.015522-2.543152-8.519558-49.082826-163.016019-38.401589-127.284739-10.808395-35.73128-5.849249-19.327952-5.976406 19.327952-51.49882 163.016019L356.168384 445.051534l-2.161678 7.120824-34.968335 10.554079L156.149509 511.809264 0 558.857569l154.750776 48.701353 1.398733 0.50863 162.888862 51.371663 33.569601 10.554079 30.199926 100.136595L431.699988 932.700857l27.466037 91.299143 22.63405-71.526139L487.967217 932.700857l51.308084-162.507389z m322.980256-552.499689L853.100211 0l-33.188129 119.019496-12.5886 44.886626-6.230722 22.252577-156.530982 52.897553-26.575934 9.028189 26.575934 7.375139 95.113871 26.575935 64.468893 18.056376 3.17894 9.409661L853.227369 445.051534l12.842915 38.147274 10.681237-38.147274 41.326214-148.011425 44.377996-15.004594 7.756612-2.670309 130.972309-44.250839-130.972309-36.557804-55.18639-15.386068z m0 0" fill="#666666" p-id="15847"></path></svg>