<?xml version="1.0" standalone="no"?><!DOCTYPE svg PUBLIC "-//W3C//DTD SVG 1.1//EN" "http://www.w3.org/Graphics/SVG/1.1/DTD/svg11.dtd"><svg t="1721103137825" class="icon" viewBox="0 0 1024 1024" version="1.1" xmlns="http://www.w3.org/2000/svg" p-id="7075" xmlns:xlink="http://www.w3.org/1999/xlink" width="200" height="200"><path d="M0 0m113.756712 0l796.296982 0q113.756712 0 113.756711 113.756712l0 796.296982q0 113.756712-113.756711 113.756711l-796.296982 0q-113.756712 0-113.756712-113.756711l0-796.296982q0-113.756712 113.756712-113.756712Z" fill="#BF8DC0" p-id="7076"></path><path d="M670.519978 439.252583c-2.464729 6.408295-5.081133 12.740752-7.356268 19.186965-1.668432 4.777782-3.10935 5.915349-6.825402 1.213405a180.949009 180.949009 0 0 1-36.174635-76.672024 197.671246 197.671246 0 0 1 1.706351-86.417182c1.137567-4.891539 0.530865-7.28043-4.322755-9.290131a244.842363 244.842363 0 0 0-104.46658-18.656101 321.855656 321.855656 0 0 0-106.172931 16.722237c-5.270728 1.74427-4.815701 4.322755-3.791891 8.64551 13.612887 59.760193 5.005295 115.083873-33.103203 164.454286-1.327162 1.668432-2.42681 4.398593-4.512349 4.284836-2.76808 0-2.654323-3.488539-3.564377-5.498241-2.199296-4.664025-4.095242-9.403888-6.104944-14.105832 0-7.204592-2.957675-13.802481-4.246917-20.74164-6.142862-32.837771-5.611998-64.955082 9.441807-95.707314a114.287576 114.287576 0 0 1 24.836882-33.406554 6.370376 6.370376 0 0 0 2.42681-7.242511C377.331013 248.975523 398.148491 218.337049 443.651176 216.137752a101.205555 101.205555 0 0 1 30.031772 3.071431c18.731939 4.777782 33.709906-0.644621 45.99563-15.167561a171.58304 171.58304 0 0 1 18.769857-20.021181c18.428587-16.001777 40.307795-17.746047 63.134975-15.395075a79.402185 79.402185 0 0 1 37.501796 12.626995c16.418885 11.375671 23.926828 27.604962 26.353639 46.754008 3.261026 25.784855-2.08554 50.432142-10.04851 74.700241a9.365969 9.365969 0 0 0 0.644621 9.517645c20.0591 29.197556 24.647288 61.769894 20.210776 96.048583-1.516756 10.427699-3.867728 20.665803-5.725754 30.979745z" fill="#5D1F1D" p-id="7077"></path><path d="M276.011702 752.462729a9.365969 9.365969 0 0 0-6.787484-6.522051c-22.068802 7.583781-56.04414 19.755749-76.292835 49.294575-35.98504 71.060026-38.373931 188.381115-44.251361 228.575152h181.517793c4.891539-47.512387 9.858915-99.726717 14.712535-105.073282a12.361563 12.361563 0 0 0 2.275134-15.167562C323.44825 853.175338 299.559341 802.894871 276.011702 752.462729zM832.888724 795.349009c-20.286614-29.652583-54.224033-41.710794-76.292834-49.294575a9.214294 9.214294 0 0 0-6.93916 6.522052c-23.547639 50.432142-47.474468 100.788447-71.211701 151.18267a12.399482 12.399482 0 0 0 2.313053 15.167561c4.85362 5.346565 9.820996 57.560896 14.674616 105.073283h181.555712c-5.87743-40.383633-8.266321-157.704721-44.099686-228.650991z" fill="#EAE0EB" p-id="7078"></path><path d="M677.800407 906.261803a17.215182 17.215182 0 0 1 1.06173-2.692242c-39.814849 84.331642-40.383633 86.530939-1.06173 2.692242z" fill="#EEE4D3" p-id="7079"></path><path d="M687.280133 730.735197h-7.394186a29.538826 29.538826 0 0 0-6.939159 6.977079c-28.173746 38.487687-56.878356 76.78578-85.12794 115.159711-3.223107 4.322755-7.583781-16.418885-11.868617-19.414479-3.526458-2.388891-5.839511 16.191372-10.996482 17.253101a19.604073 19.604073 0 0 0-7.204591 4.967377c-7.090835 7.242511-13.082022 15.167562-20.476209 22.182558a14.598778 14.598778 0 0 0-3.261025 19.149047c10.238104 20.021181 26.543233 85.355453 39.473579 126.838733h98.58915c0-1.289243 0.34127-2.578485 0.492946-3.79189 4.436512-32.003555-2.692242-141.361674 1.971783-173.32731 5.081133-34.961229 9.745158-69.922459 15.167561-104.845769 0.417108-3.79189 1.327162-7.849213-2.42681-11.148158zM488.281726 877.443436c-1.289243-1.099648-2.161378-2.502648-3.336864-3.79189-8.190483-7.849213-13.612887-17.518534-24.040585-23.888909-4.701944-0.985892-8.342159-7.583781-11.375671-5.649917-6.977078 4.815701-7.128754 13.954157-11.716941 7.811294-23.320126-30.979744-46.071468-62.26284-69.353676-93.280504-7.128754-9.479726-12.968265-19.679911-22.296315-28.097907h-7.583781c-3.564377 3.071431-2.76808 6.901241-2.313053 10.427698 2.123459 15.774264 4.436512 31.548528 6.711646 47.322792 4.664025 32.193149 9.176375 64.462137 13.8404 96.54153 2.919756 19.907425 4.777782 94.79726 7.356267 138.783188h107.158823c6.370376-28.02207 13.385373-113.45336 20.210775-126.156193 4.171079-7.242511 3.79189-13.954157-3.261025-20.021182z" fill="#7DDBCD" p-id="7080"></path><path d="M318.822144 1023.810405h49.294575c-4.095242-57.78841-8.152564-144.698537-12.247806-173.516904q-8.531753-59.798111-17.101425-119.558304c-24.154342 2.313053-47.815738 6.104944-69.657027 15.167562 24.609369 52.403925 49.067062 104.845769 73.979782 157.135938a12.171968 12.171968 0 0 1-2.502648 15.736345c-7.318348 7.773375-14.902129 66.851028-21.765451 105.035363zM756.975079 745.940678c-21.841289-9.100537-45.502685-12.892427-69.657027-15.167562q-15.167562 104.883688-30.031772 209.691539c-0.872135 5.915349-1.175486 48.005332-2.085539 83.421588H709.083503c-4.777782-36.060878-10.124347-90.246991-15.167562-95.669394-15.395075-16.646399-15.167562-16.532642-5.87743-35.871283 23.282207-48.801629 46.033549-97.603259 68.936568-146.404888z" fill="#FFFAEF" p-id="7081"></path><path d="M536.059545 892.724755a7.583781 7.583781 0 0 1 1.36508-9.972672c9.783077-10.200185 18.959452-20.703722 28.515016-31.093501 4.664025-0.530865 6.55997-7.204592 4.284836-8.683429-14.902129-9.745158-40.649065-15.432994-55.551194-25.140234l-1.668432 0.303352a13.15786 13.15786 0 0 0-6.635808 3.336863c-15.167562 9.66932-35.264581 11.944455-50.583818 21.651694a430.379559 430.379559 0 0 0 32.15523 38.866877 8.607591 8.607591 0 0 1 1.933865 10.996482c-11.375671 23.282207-22.751342 93.73553-34.127014 130.820218h124.715275c-11.261914-37.084688-32.87569-107.727606-44.403036-131.08565z" fill="#155A69" p-id="7082"></path><path d="M470.535679 548.68654h78.378374c1.782188 0 4.322755-1.02381 5.232809 1.175486s-1.327162 3.374782-2.578486 4.777781c-8.266321 9.100537-17.328939 17.101426-29.766339 20.286614a84.862507 84.862507 0 0 1-12.740752 1.02381c-17.480615-2.578485-29.083799-13.385373-38.525606-27.263691z" fill="#F2EDD6" p-id="7083"></path><path d="M513.156527 517.441363a20.438289 20.438289 0 0 1 14.18167 7.58378c0.796297 0.910054 2.199296 1.858026 1.213405 3.185188a4.171079 4.171079 0 0 1-2.843918 0.872135c-4.246917 0-8.455916 0-12.702833 0.227514h-12.09613c-1.251324 0-2.76808 0.303351-3.450621-1.023811s0.758378-2.692242 1.74427-3.79189a22.751342 22.751342 0 0 1 13.954157-7.052916z" fill="#DF9162" p-id="7084"></path><path d="M616.599296 583.344418c-2.313053 1.137567-8.797186 3.488539-11.07232 4.664025-30.600555 16.418885-61.390705 32.572338-93.39426 46.829846-10.579374-3.79189-20.248695 16.646399-30.10761 11.679023-22.751342-11.375671-45.275171-48.839548-67.874838-60.404814 0 10.238104 5.081133 50.015034 5.005296 60.291057 0 18.314831-11.565266 36.022959-32.761933 66.888946 8.038808 9.365969 41.710794 23.320126 49.635845 32.648177 0 0 15.167562 27.33953 15.167562 27.415367 14.029994 17.139345 14.067913 0 28.249583 17.139345 10.351861 12.399482 20.476208 12.171968 31.776041 23.964747l2.76808 0.910054c6.711646-8.190483 23.054694-8.683429 29.76634-16.835994 25.59526-31.093501 62.755786-61.23903 88.388965-92.294612-8.038808-19.641992-24.192261-28.211665-22.751342-87.933938 0.075838 0.037919 5.839511-32.610257 7.204591-34.961229z" fill="#DEB088" p-id="7085"></path><path d="M711.775745 436.674097a17.783966 17.783966 0 0 0-5.687835-10.503536c-6.294538-4.929458-15.622588-2.237215-22.447991 1.933864a64.462137 64.462137 0 0 0-25.102315 29.197556 185.195927 185.195927 0 0 1-34.92331-154.481614c1.175486-5.005295 2.42681-10.617293-0.227514-15.167562a18.656101 18.656101 0 0 0-10.996482-6.787484 334.975597 334.975597 0 0 0-204.382892 0.872135 14.560859 14.560859 0 0 0-5.801592 2.957675c-4.019404 3.79189-2.730161 10.313942-1.403 15.660507a184.551305 184.551305 0 0 1-35.037067 157.704721c-5.649917-11.375671-11.944455-23.699315-23.092612-29.955934-11.830698-6.673727-31.169339-2.76808-31.207258 12.589076 0 20.172857 0 39.09439 9.479726 57.560896s27.946232 32.799852 48.574116 33.671987a11.679022 11.679022 0 0 1 7.128754 1.706351A9.858915 9.858915 0 0 1 379.189039 538.448435c5.649917 17.101426 7.014997 36.288391 17.973561 50.583818a84.369561 84.369561 0 0 0 17.442695 15.774264 615.689243 615.689243 0 0 0 82.776968 51.342196 37.35012 37.35012 0 0 0 16.153453 5.308647c7.166673 0 13.726643-3.79189 19.869505-7.583781l47.664062-28.818367a211.473727 211.473727 0 0 0 38.942715-27.832475c11.375671-11.148158 20.514127-25.481503 22.334234-41.369525 0.947973-8.114645 0.947973-18.163155 8.190483-21.992964a24.268099 24.268099 0 0 1 8.228403-2.009702c19.224884-2.995593 35.795445-16.760156 44.858063-34.127013a97.375745 97.375745 0 0 0 8.759267-56.878356c-0.075838-0.985892-0.303351-2.654323-0.606703-4.17108z" fill="#E8CDB6" p-id="7086"></path><path d="M449.945714 850.558934c-4.133161 2.388891-8.228402 4.777782-12.399482 7.128753-8.948861 5.119052-10.579374 4.967376-16.494723-1.668431-20.210776-22.751342-40.307795-45.502685-60.670246-67.988595-14.750454-16.570561-29.652583-33.103203-44.403037-49.673764-2.08554-2.313053-5.346565-4.51235-3.412701-7.583781L382.980929 697.707832a11.868617 11.868617 0 0 1 9.631402 3.336863c8.266321 7.811294 17.215182 15.167562 25.026477 23.282207 13.347454 11.944455 26.543233 24.078504 39.587335 36.136716 16.191372 14.902129 32.155231 29.918015 48.763711 44.592631 2.730161 2.388891 3.261026 5.649917 6.939159 7.583781 1.365081 0.872135 2.995593 1.554675 3.791891 2.843917a2.995593 2.995593 0 0 1-0.227514 2.881837 6.370376 6.370376 0 0 1-1.933864 1.403q-26.2778 14.636697-53.27606 28.742529a13.082022 13.082022 0 0 1-11.337752 2.047621z" fill="#BFDFDA" p-id="7087"></path><path d="M515.014553 817.834919v-2.464728c-0.796297-3.79189 1.895945-7.090835 5.043214-9.934753 37.69139-34.127014 74.662322-68.898648 112.315793-103.215257a16.494723 16.494723 0 0 1 8.569673-4.853619 6.787484 6.787484 0 0 1 2.76808 0.265432l69.770783 33.065284c1.440918 5.574079-4.967376 9.100537-8.493835 13.082022-32.951527 37.463877-66.396001 74.73816-99.688798 112.08828-6.142862 6.825403-6.142862 6.787484-15.470913 2.199297a65.220515 65.220515 0 0 0-13.157859-6.408295 17.97356 17.97356 0 0 1-10.503537-2.350972c-14.902129-8.000889-29.690502-16.115534-44.782225-23.964748-3.716053-1.895945-6.446214-4.171079-6.370376-7.507943z" fill="#BEE8E2" p-id="7088"></path></svg>