<?xml version="1.0" standalone="no"?><!DOCTYPE svg PUBLIC "-//W3C//DTD SVG 1.1//EN" "http://www.w3.org/Graphics/SVG/1.1/DTD/svg11.dtd"><svg t="1717314921474" class="icon" viewBox="0 0 1024 1024" version="1.1" xmlns="http://www.w3.org/2000/svg" p-id="6691" xmlns:xlink="http://www.w3.org/1999/xlink" width="200" height="200"><path d="M814 924.4c-0.7 0-1.8-0.3-2.6-0.6l-71.2-49.1-3.8 0.8c-14.5 3.2-29.8 4.5-51 4.5-55.9 0-108.9-16.9-151.7-47.9 19.6-2 39-5.3 58.2-9.7 28.6 13.3 60.6 20.4 92.8 20.4 13.3 0 27.4-1.4 43.2-4.4l0.3-0.1 6.6-1.7c0.4-0.1 0.7-0.1 1-0.1 1.3 0 2.6 0.4 4.1 1.3l5.5 4 44 30.4v-51c0-2.5 1.5-4.9 3-5.7l0.3-0.2 8.5-5.3c53.3-32.9 85.2-87.1 85.2-144.9 0-21-4.1-41.5-12.1-61 7.7-16 14.3-32.5 19.6-49.4 21.2 32.8 32.4 69.9 32.4 108.2 0 69.9-38.6 136.4-103.3 177.8l-4.4 2.8V919c-0.3 4.9-3.3 5.4-4.6 5.4z" fill="#878E9A" p-id="6692"></path><path d="M781.8 220.6c-73.7-76.9-181-121-294.4-121-104.3 0-202.3 36.5-275.9 102.7-73.2 65.9-113.6 153.4-113.6 246.4 0 56.7 15.8 113.3 45.6 163.6 28.9 48.7 70.8 91.5 121.1 123.8l4.4 2.8v116.5c0 9.9 6.2 14.3 12.4 14.3 2.5 0 5.2-0.9 6.9-1.7l111.5-77 3.9 0.8c29.8 6.5 59.6 7.3 82.2 7.3 104.3 0 202.3-36.5 275.9-102.7C835 630.5 875.3 543 875.3 450c0.7-84.3-32.5-165.8-93.5-229.4zM309 499c-21.2 0-38.5-17.9-38.5-39.8 0-22 17.3-39.8 38.5-39.8s38.5 17.9 38.5 39.8S330.2 499 309 499z m181.3 0c-21.2 0-38.5-17.9-38.5-39.8 0-22 17.3-39.8 38.5-39.8s38.5 17.9 38.5 39.8-17.3 39.8-38.5 39.8z m175.4 0c-21.2 0-38.5-17.9-38.5-39.8 0-22 17.3-39.8 38.5-39.8s38.5 17.9 38.5 39.8c0.1 21.9-17.2 39.8-38.5 39.8z" fill="#8290A3" p-id="6693"></path></svg>